<svg width="14" height="14" viewBox="0 0 14 14" fill="none" xmlns="http://www.w3.org/2000/svg">
<path d="M8.94685 6.68442L12.8982 2.73275C13.5234 2.10743 13.5234 1.09374 12.8982 0.468745C12.2736 -0.156248 11.2594 -0.156248 10.6349 0.468745L6.68355 4.42106L2.73221 0.468745C2.10764 -0.156248 1.09348 -0.156248 0.468907 0.468745C-0.156302 1.09406 -0.156302 2.10775 0.468907 2.73275L4.41992 6.68442L0.468907 10.6361C-0.156302 11.2614 -0.156302 12.2751 0.468907 12.9001C0.781031 13.2129 1.19111 13.3688 1.60056 13.3688C2.00968 13.3688 2.42008 13.2129 2.73221 12.9001L6.68355 8.94843L10.6349 12.9004C10.9473 13.2132 11.3571 13.3692 11.7665 13.3692C12.176 13.3692 12.5861 13.2132 12.8982 12.9004C13.5234 12.2751 13.5234 11.2614 12.8982 10.6364L8.94685 6.68442Z" fill="#9094B6" fill-opacity="0.2"/>
</svg>
